<?xml version="1.0" encoding="utf-8"?><svg viewBox="0 0 20 20" xmlns="http://www.w3.org/2000/svg" xmlns:xlink="http://www.w3.org/1999/xlink"><style>:root>svg{display:none}:root>svg:target{display:block}</style><svg fill="none" viewBox="0 0 18 18" id="area" xmlns="http://www.w3.org/2000/svg"><path fill-rule="evenodd" clip-rule="evenodd" d="M6.312 4.791A2.983 2.983 0 018 4.25h3a.75.75 0 010 1.5H8c-.213 0-.55.07-.812.259-.223.16-.438.435-.438.991s.215.83.438.991c.262.189.599.259.812.259h2c.453 0 1.117.13 1.688.541.61.44 1.062 1.165 1.062 2.209s-.452 1.77-1.062 2.209A2.983 2.983 0 0110 13.75H6.5a.75.75 0 010-1.5H10c.213 0 .55-.07.812-.259.223-.16.438-.435.438-.991s-.215-.83-.438-.991A1.487 1.487 0 0010 9.75H8c-.453 0-1.117-.13-1.688-.541C5.702 8.769 5.25 8.044 5.25 7s.452-1.77 1.062-2.209z" fill="#fff"/><path fill-rule="evenodd" clip-rule="evenodd" d="M16 1.5H2a.5.5 0 00-.5.5v14a.5.5 0 00.5.5h14a.5.5 0 00.5-.5V2a.5.5 0 00-.5-.5zM2 0a2 2 0 00-2 2v14a2 2 0 002 2h14a2 2 0 002-2V2a2 2 0 00-2-2H2z" fill="#fff"/></svg><svg fill="none" viewBox="0 0 10 18" id="arrow-left" xmlns="http://www.w3.org/2000/svg"><path d="M10 1L9 0 0 9l9 9 1-1-8-8 8-8z" fill="#99938E"/></svg><svg fill="none" viewBox="0 0 10 18" id="arrow-right" xmlns="http://www.w3.org/2000/svg"><path d="M0 17l1 1 9-9-9-9-1 1 8 8-8 8z" fill="#99938E"/></svg><svg fill="none" viewBox="0 0 18 18" id="bath" xmlns="http://www.w3.org/2000/svg"><path fill-rule="evenodd" clip-rule="evenodd" d="M2.38 2.022c-.445.32-.837.863-.837 1.849v5.42h15.686a.776.776 0 01.716 1.062c-.34.852-1.14 2.81-1.57 3.67-.453.91-1.135 1.428-1.93 1.696-.751.254-1.589.281-2.36.281H2.83c-1.075 0-1.82-.467-2.272-1.096A3.087 3.087 0 010 13.161v-9.29C0 2.38.636 1.373 1.478.765A4.207 4.207 0 013.858 0c.72 0 1.858.24 2.725 1.05.312.291.33.781.039 1.094a.77.77 0 01-1.09.04c-.502-.47-1.218-.636-1.675-.636-.39 0-.994.124-1.478.474zm-.837 8.817v2.322c0 .22.072.568.266.838.165.231.448.453 1.02.453h9.257c.772 0 1.38-.036 1.866-.2.441-.15.787-.406 1.044-.92.27-.542.718-1.6 1.086-2.493H1.542z" fill="#fff"/><path fill-rule="evenodd" clip-rule="evenodd" d="M3.75 15a.75.75 0 01.75.75v1.5a.75.75 0 01-1.5 0v-1.5a.75.75 0 01.75-.75zM13.75 15a.75.75 0 01.75.75v1.5a.75.75 0 01-1.5 0v-1.5a.75.75 0 01.75-.75zM4.75 1.5A.75.75 0 015.5.75h2a.75.75 0 01.53 1.28l-2 2a.75.75 0 01-1.28-.53v-2z" fill="#fff"/></svg><svg fill="none" viewBox="0 0 16 18" id="clip" xmlns="http://www.w3.org/2000/svg"><path fill-rule="evenodd" clip-rule="evenodd" d="M8.96 1.928c-.906.505-1.57 1.41-1.97 2.107l-5.116 8.897a2.684 2.684 0 00-.329 1.514c.055.544.325 1.153 1.172 1.644.846.491 1.506.421 2.003.197.54-.245.946-.705 1.14-1.043l5.116-8.897a.959.959 0 00.115-.526c-.015-.15-.081-.344-.396-.527-.315-.183-.515-.143-.652-.08a.952.952 0 00-.396.362l-4.092 7.118a.766.766 0 01-1.048.282.772.772 0 01-.281-1.053l4.092-7.118c.19-.329.558-.754 1.095-.997.58-.263 1.301-.282 2.05.151.747.434 1.09 1.07 1.155 1.707a2.5 2.5 0 01-.313 1.451L7.19 16.015c-.317.551-.944 1.271-1.84 1.677-.94.425-2.121.475-3.4-.267C.67 16.683.121 15.63.018 14.6a4.227 4.227 0 01.526-2.44L5.66 3.265c.452-.786 1.288-1.977 2.555-2.683 1.33-.742 3.04-.894 5.037.264C15.25 2.003 15.974 3.566 16 5.095c.025 1.454-.584 2.777-1.036 3.563l-4.092 7.118a.766.766 0 01-1.048.282.772.772 0 01-.281-1.052l4.092-7.118c.4-.697.848-1.727.831-2.768-.016-.968-.433-2.043-1.98-2.94-1.546-.897-2.682-.722-3.525-.252z" fill="#FFD200"/></svg><svg fill="none" viewBox="0 0 12 7" id="down-light" xmlns="http://www.w3.org/2000/svg"><path d="M.5 1.5L2 0l4 4 4-4 1.5 1.5L6 7 .5 1.5z" fill="#fff"/></svg><svg fill="none" viewBox="0 0 20 20" id="drawing" xmlns="http://www.w3.org/2000/svg"><path fill-rule="evenodd" clip-rule="evenodd" d="M2.257 1.91c-.422.304-.794.816-.794 1.749v9.704a3.94 3.94 0 011.464-.605V1.582c-.227.072-.46.178-.67.329zM0 16.342V3.66C0 2.249.604 1.298 1.402.723A4 4 0 013.659 0h.731v14.146H3.66c-.371 0-.944.118-1.402.448-.422.303-.794.815-.794 1.748 0 .37.118.943.448 1.401.303.422.815.794 1.748.794h16.097V20H3.66c-1.41 0-2.361-.604-2.936-1.402A4 4 0 010 16.342z" fill="#fff"/><path fill-rule="evenodd" clip-rule="evenodd" d="M11.463 6.662l4.147 2.962v6.961H7.317V9.624l4.146-2.962zM8.78 10.377v4.745h5.366v-4.745L11.463 8.46 8.78 10.377z" fill="#fff"/><path fill-rule="evenodd" clip-rule="evenodd" d="M3.659 3.415H20V20h-1.463V4.878H3.659V3.415z" fill="#fff"/></svg><svg fill="none" viewBox="0 0 20 20" id="home" xmlns="http://www.w3.org/2000/svg"><path fill-rule="evenodd" clip-rule="evenodd" d="M10 0l10 7.173-.895 1.182L10 1.824.895 8.355 0 7.173 10 0z" fill="#fff"/><path fill-rule="evenodd" clip-rule="evenodd" d="M18.296 6.296V20H1.704V6.54h1.509v11.992h13.574V6.296h1.509zM12.765.912h4.525v4.65h-1.508V2.38h-1.508v.979h-1.509V.912z" fill="#fff"/></svg><svg fill="none" viewBox="0 0 20 20" id="mail" xmlns="http://www.w3.org/2000/svg"><path d="M20 18c0 .667-.4 2-2 2H2c-.667 0-2-.4-2-2V9l10 6 10-6v9z" fill="#2F2B28"/><path fill-rule="evenodd" clip-rule="evenodd" d="M10 0L0 7v3l10 6 10-6V7L10 0zm8 8.041l-8-5.6-8 5.6v.827l8 4.8 8-4.8V8.04z" fill="#2F2B28"/></svg><svg viewBox="0 0 20 20" id="phone" xmlns="http://www.w3.org/2000/svg"><path fill-rule="evenodd" clip-rule="evenodd" d="M5 7.527c.214-.199 1.442-1.386 1.92-1.829.599-.552.599-1.19.385-1.7-.214-.51-1.653-2.848-2.038-3.359C4.883.13 4.583.044 4.156.002 3.728-.041 2.788.724 2.19 1.32 1.59 1.915.632 3.335.29 3.93c-.3.464-.428 1.105-.086 2.253a17.713 17.713 0 002.65 5.442c1.625 2.253 3.505 4.081 6.326 5.994C12.002 19.532 14.737 20 15.207 20c.47 0 1.13-.315 1.9-.91s1.838-1.615 2.522-2.338c.684-.723.3-1.53-.17-1.956-.471-.425-2.827-1.896-3.511-2.15-.684-.256-1.325.084-1.625.424-.239.272-1.549 1.616-1.834 1.914-.541-.085-2.842-1.454-4.45-2.985-1.607-1.53-2.967-3.891-3.038-4.472z"/></svg><svg fill="none" viewBox="0 0 20 20" id="pin" xmlns="http://www.w3.org/2000/svg"><path d="M20 18.5c0 .828-4.477 1.5-10 1.5s-10-.672-10-1.5S4.477 17 10 17s10 .672 10 1.5zM16 6a5.972 5.972 0 01-1 3.318C13.925 10.935 10 16 10 16s-3.925-5.066-5-6.682A6 6 0 1116 6z" fill="#2F2B28"/></svg><svg fill="none" viewBox="0 0 16 20" id="play" xmlns="http://www.w3.org/2000/svg"><path d="M0 20V0l16 10L0 20z" fill="#fff"/></svg><svg fill="none" viewBox="0 0 18 18" id="room" xmlns="http://www.w3.org/2000/svg"><path fill-rule="evenodd" clip-rule="evenodd" d="M1.515 8.91A.365.365 0 001.5 9v8.25a.75.75 0 01-1.5 0V9c0-.287.08-.7.341-1.063.29-.402.765-.687 1.409-.687h14.5c.287 0 .7.08 1.063.341.402.29.687.765.687 1.409v8.25a.75.75 0 01-1.5 0V9a.325.325 0 00-.026-.15.113.113 0 00-.037-.041.364.364 0 00-.187-.059H1.75a.326.326 0 00-.15.026.113.113 0 00-.041.037.315.315 0 00-.044.096z" fill="#fff"/><path fill-rule="evenodd" clip-rule="evenodd" d="M2.765 1.66a.365.365 0 00-.015.09v6a.75.75 0 01-1.5 0v-6c0-.287.08-.7.341-1.063C1.881.285 2.356 0 3 0h12c.287 0 .7.08 1.063.341.402.29.687.765.687 1.409v6a.75.75 0 01-1.5 0v-6a.325.325 0 00-.026-.15.113.113 0 00-.037-.041A.364.364 0 0015 1.5H3a.326.326 0 00-.15.026.113.113 0 00-.041.037.315.315 0 00-.044.096zM.25 14a.75.75 0 01.75-.75h16a.75.75 0 010 1.5H1A.75.75 0 01.25 14z" fill="#fff"/><path fill-rule="evenodd" clip-rule="evenodd" d="M6.209 5.813A2.603 2.603 0 005.75 7.25V8a.75.75 0 01-1.5 0v-.75c0-.62.18-1.533.741-2.313C5.581 4.119 6.556 3.5 8 3.5h2c1.444 0 2.42.619 3.009 1.437a4.1 4.1 0 01.741 2.313V8a.75.75 0 01-1.5 0v-.75c0-.38-.12-.967-.459-1.437C11.481 5.381 10.956 5 10 5H8c-.956 0-1.48.381-1.791.813z" fill="#fff"/></svg><svg fill="none" viewBox="0 0 16 20" id="shield" xmlns="http://www.w3.org/2000/svg"><path fill-rule="evenodd" clip-rule="evenodd" d="M.562 1.028C1.799.686 4.595 0 8 0c2.933 0 5.173.512 6.705.862.248.057.478.11.689.155l.606.13V13.74c0 1.894-1.455 3.339-2.996 4.312-1.577.996-3.478 1.653-4.852 1.919L8 20l-.152-.03c-1.374-.265-3.275-.922-4.852-1.918C1.455 17.08 0 15.634 0 13.74V1.183l.562-.155zm.986 1.293V13.74c0 1.103.868 2.157 2.294 3.057 1.334.842 2.962 1.42 4.158 1.673 1.196-.252 2.824-.831 4.158-1.673 1.426-.9 2.294-1.954 2.294-3.057V2.345l-.118-.027c-1.53-.349-3.594-.82-6.334-.82-2.763 0-5.108.482-6.452.823z" fill="#fff"/><path fill-rule="evenodd" clip-rule="evenodd" d="M13.193 7.275l-6.225 6.026-3.644-3.528 1.094-1.06 2.55 2.468 5.13-4.966 1.095 1.06z" fill="#fff"/></svg><svg fill="none" viewBox="0 0 20 20" id="staff" xmlns="http://www.w3.org/2000/svg"><path fill-rule="evenodd" clip-rule="evenodd" d="M3.307 5.535c-.93 1.583-1.256 3.368-1.256 4.588H.513c0-1.427.37-3.473 1.455-5.318C3.065 2.939 4.902 1.267 7.795.699l.307 1.452c-2.381.467-3.877 1.821-4.795 3.384zm13.386 0c-.918-1.563-2.414-2.917-4.796-3.384l.308-1.452c2.893.568 4.73 2.24 5.827 4.106 1.084 1.845 1.455 3.891 1.455 5.318H17.95c0-1.22-.326-3.005-1.256-4.588z" fill="#fff"/><path fill-rule="evenodd" clip-rule="evenodd" d="M7.18 0h5.64v8.148h-1.538V1.481H8.718v6.667H7.179V0zM0 10.124c0-.41.344-.741.77-.741h18.46c.426 0 .77.331.77.74V12.1a.737.737 0 01-.404.652c-1.237.641-4.767 1.817-9.596 1.817-4.83 0-8.36-1.176-9.595-1.817A.737.737 0 010 12.1v-1.975zm1.538.74v.77c1.314.557 4.36 1.452 8.462 1.452 4.102 0 7.148-.895 8.462-1.452v-.77H1.538z" fill="#fff"/><path fill-rule="evenodd" clip-rule="evenodd" d="M1.183 13.59l1.996-.998.67 1.34-1.583.791v3.031c0 .355.131.505.25.59a.926.926 0 00.499.159h4.49c.011-.003.062-.02.163-.114.143-.132.288-.321.486-.585l.018-.025c.174-.232.396-.528.65-.762.268-.248.66-.51 1.178-.51.518 0 .91.262 1.178.51.254.234.476.53.65.762l.018.025c.198.264.343.453.486.585.101.094.152.111.164.114h4.49c.354 0 .504-.131.59-.25a.927.927 0 00.158-.499v-3.031l-1.582-.791.67-1.34 1.995.999a.749.749 0 01.414.67v3.493c0 .37-.105.907-.44 1.373-.364.505-.963.873-1.806.873h-4.49c-.518 0-.91-.263-1.178-.51-.254-.235-.476-.531-.65-.763l-.018-.025c-.198-.264-.343-.453-.486-.585-.098-.09-.149-.11-.163-.113-.014.003-.065.022-.163.113-.143.132-.288.322-.486.585l-.018.025c-.174.232-.396.528-.65.762-.268.248-.66.51-1.178.51h-4.49a2.42 2.42 0 01-1.373-.44c-.505-.363-.873-.962-.873-1.805V14.26c0-.283.16-.543.414-.67z" fill="#fff"/></svg><svg fill="none" viewBox="0 0 20 20" id="user" xmlns="http://www.w3.org/2000/svg"><path d="M0 18.4c0 .533.32 1.6 1.6 1.6h16.8c1.28 0 1.6-1.067 1.6-1.6v-1.8c0-.3-.2-1.4-.6-2.2-.4-.8-1.1-1.9-2.4-2.6-1.04-.56-2.233-.767-2.7-.8-.467.533-1.98 1.6-4.3 1.6S6.167 11.533 5.7 11c-.1 0-.4.02-.8.1-.5.1-1.2.3-1.9.7-.7.4-1.6 1.1-2.3 2.4-.56 1.04-.7 2.167-.7 2.6v1.6z" fill="#2F2B28"/><path d="M5 5a5 5 0 0110 0v1A5 5 0 015 6V5z" fill="#2F2B28"/></svg></svg>