<svg width="30" height="30" viewBox="0 0 30 30" fill="none" xmlns="http://www.w3.org/2000/svg">
<rect width="30" height="30" rx="15" fill="url(#paint0_linear_105_26)"/>
<path fill-rule="evenodd" clip-rule="evenodd" d="M5.35715 11.0695C5.35715 7.91455 7.91476 5.35693 11.0697 5.35693H18.9303C22.0852 5.35693 24.6429 7.91455 24.6429 11.0695V18.9301C24.6429 22.085 22.0852 24.6426 18.9303 24.6426H11.0697C7.91476 24.6426 5.35715 22.085 5.35715 18.9301V11.0695ZM11.0697 7.18496C8.92436 7.18496 7.18518 8.92414 7.18518 11.0695V18.9301C7.18518 21.0754 8.92435 22.8146 11.0697 22.8146H18.9303C21.0757 22.8146 22.8148 21.0754 22.8148 18.9301V11.0695C22.8148 8.92414 21.0757 7.18496 18.9303 7.18496H11.0697Z" fill="white"/>
<path fill-rule="evenodd" clip-rule="evenodd" d="M15 11.9287C13.3089 11.9287 11.9381 13.2996 11.9381 14.9907C11.9381 16.6817 13.3089 18.0526 15 18.0526C16.6911 18.0526 18.062 16.6817 18.062 14.9907C18.062 13.2996 16.6911 11.9287 15 11.9287ZM10.11 14.9907C10.11 12.29 12.2993 10.1007 15 10.1007C17.7007 10.1007 19.89 12.29 19.89 14.9907C19.89 17.6913 17.7007 19.8806 15 19.8806C12.2993 19.8806 10.11 17.6913 10.11 14.9907Z" fill="white"/>
<path d="M21.3067 9.86303C21.3067 10.5193 20.7747 11.0512 20.1185 11.0512C19.4623 11.0512 18.9303 10.5193 18.9303 9.86303C18.9303 9.20679 19.4623 8.67481 20.1185 8.67481C20.7747 8.67481 21.3067 9.20679 21.3067 9.86303Z" fill="white"/>
<defs>
<linearGradient id="paint0_linear_105_26" x1="24.6429" y1="5.35714" x2="5.35714" y2="24.6429" gradientUnits="userSpaceOnUse">
<stop stop-color="#A0339D"/>
<stop offset="1" stop-color="#FFD164"/>
</linearGradient>
</defs>
</svg>
