<svg width="206" height="50" viewBox="0 0 206 50" fill="none" xmlns="http://www.w3.org/2000/svg">
<path d="M95.6678 35.3H97.7627L97.4635 40.4H95.4683L95.2688 37.6H85.0935L84.9937 40.4H82.8988V35.3H84.1957C85.0935 33.7 85.692 31.8 85.9913 29.7C86.2906 28.1 86.3903 25.9 86.3903 23H95.6678V35.3ZM88.8843 25.2C88.8843 27 88.6848 28.8 88.3855 30.6C87.9865 32.6 87.4877 34.2 86.8891 35.3H93.2736V25.2H88.8843ZM117.315 37.6V23H119.709L124.298 30H124.398L128.987 23H131.481V37.6H128.987V27.1H128.887L124.398 33.9L119.809 27.1H119.709V37.6H117.315ZM141.756 37.7C139.661 37.7 137.865 37 136.469 35.7C135.072 34.4 134.374 32.6 134.374 30.3C134.374 28.2 135.072 26.4 136.369 24.9C137.666 23.5 139.362 22.8 141.656 22.8C143.951 22.8 145.946 23.7 147.442 25.6L145.547 27.1C144.549 25.8 143.252 25.1 141.656 25.1C140.26 25.1 139.162 25.6 138.264 26.6C137.367 27.5 136.968 28.8 136.968 30.3C136.968 31.8 137.367 33 138.264 34C139.162 34.9 140.359 35.4 141.756 35.4C143.252 35.4 144.549 34.7 145.647 33.4L147.442 34.9C145.946 36.8 144.05 37.7 141.756 37.7ZM153.328 37.6V25.2H149.238V23H160.012V25.2H155.822V37.6H153.328ZM163.204 37.6V23H168.99C170.686 23 171.883 23.4 172.781 24.3C173.579 25.1 173.978 26.3 173.978 27.7C173.978 29.2 173.479 30.4 172.581 31.2C171.683 32 170.386 32.4 168.691 32.4H165.698V37.6H163.204ZM165.698 30.1H168.491C169.489 30.1 170.187 29.9 170.686 29.5C171.185 29 171.384 28.4 171.384 27.7C171.384 26.9 171.185 26.3 170.686 25.8C170.287 25.4 169.588 25.2 168.691 25.2H165.698V30.1ZM183.654 37.7C181.46 37.7 179.764 37 178.367 35.6C176.97 34.2 176.272 32.4 176.272 30.3C176.272 28.1 176.97 26.3 178.367 24.9C179.764 23.5 181.46 22.8 183.654 22.8C185.749 22.8 187.545 23.5 188.941 24.9C190.338 26.3 191.036 28.1 191.036 30.3C191.036 32.5 190.338 34.3 188.941 35.7C187.545 37 185.749 37.7 183.654 37.7ZM183.654 35.4C185.051 35.4 186.148 34.9 187.046 33.9C187.944 33 188.443 31.7 188.443 30.3C188.443 28.8 187.944 27.5 187.046 26.6C186.148 25.6 185.051 25.1 183.654 25.1C182.258 25.1 181.16 25.6 180.262 26.6C179.365 27.6 178.866 28.8 178.866 30.3C178.866 31.7 179.365 32.9 180.262 33.9C181.16 34.9 182.258 35.4 183.654 35.4ZM203.606 19.5C203.107 21 202.01 21.8 200.214 21.8C198.418 21.8 197.321 21 196.822 19.5H198.917C199.017 19.6 199.117 19.7 199.117 19.8C199.416 20.2 199.715 20.3 200.214 20.3C200.713 20.3 201.012 20.2 201.311 19.8C201.411 19.7 201.411 19.6 201.511 19.5H203.606ZM194.229 37.6V23H196.723V33.4H196.822L203.805 23H206V37.6H203.506V27.2L196.423 37.6H194.229Z" fill="#252362"/>
<path d="M83.1981 16.4V0.2H85.9913L91.0789 7.8L96.2663 0.2H98.9598V16.4H96.2663V5H96.1666L91.0789 12.6L85.9913 5V16.4H83.1981ZM110.831 16.6C108.437 16.6 106.442 15.8 104.945 14.2C103.449 12.7 102.751 10.7 102.751 8.3C102.751 5.9 103.449 3.9 104.945 2.4C106.442 0.8 108.437 0 110.831 0C113.225 0 115.121 0.8 116.717 2.3C118.213 3.9 119.011 5.9 119.011 8.3C119.011 10.8 118.213 12.7 116.717 14.3C115.121 15.8 113.225 16.6 110.831 16.6ZM110.831 14C112.327 14 113.624 13.5 114.622 12.4C115.619 11.3 116.118 9.9 116.118 8.3C116.118 6.7 115.619 5.3 114.622 4.2C113.624 3.2 112.327 2.6 110.831 2.6C109.335 2.6 108.038 3.2 107.04 4.3C106.043 5.3 105.544 6.7 105.544 8.3C105.544 9.9 106.043 11.3 107.04 12.4C108.038 13.5 109.335 14 110.831 14ZM122.902 16.4V0.2H125.595V7.4H133.277V0.2H135.97V16.4H133.277V9.9H125.595V16.4H122.902ZM147.741 16.6C145.347 16.6 143.352 15.8 141.856 14.2C140.359 12.7 139.561 10.7 139.561 8.3C139.561 5.9 140.359 3.9 141.856 2.4C143.352 0.8 145.347 0 147.741 0C150.136 0 152.031 0.8 153.527 2.3C155.123 3.9 155.822 5.9 155.822 8.3C155.822 10.8 155.123 12.7 153.527 14.3C152.031 15.8 150.136 16.6 147.741 16.6ZM147.741 14C149.238 14 150.535 13.5 151.532 12.4C152.53 11.3 153.029 9.9 153.029 8.3C153.029 6.7 152.53 5.3 151.532 4.2C150.535 3.2 149.238 2.6 147.741 2.6C146.145 2.6 144.948 3.2 143.951 4.3C142.953 5.3 142.454 6.7 142.454 8.3C142.454 9.9 142.953 11.3 143.951 12.4C144.948 13.5 146.145 14 147.741 14ZM161.308 0.2H172.282V16.4H169.588V2.7H163.902C163.802 5.5 163.703 7.8 163.503 9.7C163.204 12 162.805 13.7 162.107 14.8C161.408 15.9 160.411 16.5 158.914 16.5C158.216 16.5 157.617 16.4 157.119 16.2L157.318 14C157.518 14 157.817 14 158.216 14C158.515 14 158.815 14 159.114 13.9C159.313 13.8 159.513 13.6 159.712 13.3C159.912 13 160.012 12.8 160.211 12.5C160.311 12.2 160.411 11.9 160.51 11.4C160.61 10.9 160.61 10.5 160.71 10.1C160.71 9.7 160.81 9.2 160.909 8.6C161.109 6.4 161.209 3.6 161.308 0.2ZM176.671 16.4V0.2H179.365V11.8H179.464L187.545 0.2H189.939V16.4H187.146V5L179.065 16.4H176.671ZM198.418 16.4V2.7H193.331V0.2H206V2.7H201.112V16.4H198.418Z" fill="#252362"/>
<path d="M85.8915 49C84.9937 49 84.2954 48.8 83.7966 48.2C83.1981 47.7 82.8988 46.9 82.8988 46.1C82.8988 45.2 83.1981 44.5 83.7966 43.9C84.2954 43.4 84.9937 43.1 85.8915 43.1C86.7894 43.1 87.4877 43.5 87.9865 44.2L87.3879 44.6C87.2882 44.3 86.9889 44.1 86.7894 44C86.4901 43.8 86.1908 43.7 85.8915 43.7C85.1932 43.7 84.6944 44 84.2954 44.4C83.8964 44.8 83.5971 45.4 83.5971 46.1C83.5971 46.7 83.8964 47.3 84.2954 47.7C84.6944 48.2 85.1932 48.4 85.8915 48.4C86.1908 48.4 86.4901 48.3 86.7894 48.2C86.9889 48 87.2882 47.8 87.3879 47.6L87.9865 47.9C87.4877 48.7 86.6896 49 85.8915 49ZM91.0789 48.9H90.3806V43.8H88.4852V43.2H92.8746V43.8H91.0789V48.9ZM94.4707 48.9H93.7724V43.2H96.0668C96.6654 43.2 97.0644 43.4 97.3637 43.7C97.7627 44 97.8625 44.4 97.8625 44.9C97.8625 45.4 97.7627 45.8 97.3637 46.2C97.0644 46.5 96.6654 46.7 96.0668 46.7H94.4707V48.9ZM95.9671 46C96.3661 46 96.6654 45.9 96.8649 45.7C97.0644 45.5 97.1642 45.3 97.1642 44.9C97.1642 44.6 97.0644 44.4 96.8649 44.1C96.6654 43.9 96.3661 43.8 95.9671 43.8H94.4707V46H95.9671ZM101.454 49C100.556 49 99.9574 48.8 99.3589 48.2C98.8601 47.6 98.5608 46.9 98.5608 46.1C98.5608 45.2 98.8601 44.5 99.3589 44C99.9574 43.4 100.556 43.1 101.454 43.1C102.252 43.1 102.95 43.4 103.449 44C104.047 44.5 104.247 45.2 104.247 46.1C104.247 46.9 104.047 47.6 103.449 48.2C102.95 48.8 102.252 49 101.454 49ZM101.454 48.4C102.052 48.4 102.551 48.2 102.95 47.7C103.349 47.3 103.549 46.7 103.549 46.1C103.549 45.4 103.349 44.8 102.95 44.4C102.551 44 102.052 43.7 101.454 43.7C100.755 43.7 100.257 44 99.8576 44.4C99.5584 44.8 99.3589 45.4 99.3589 46.1C99.3589 46.7 99.5584 47.3 99.8576 47.7C100.257 48.2 100.755 48.4 101.454 48.4ZM106.043 48.9H105.344V43.2H106.043V47.7L109.335 43.2H110.133V48.9H109.434V44.4L106.043 48.9ZM113.524 48.9H112.826V43.8H111.031V43.2H115.42V43.8H113.524V48.9ZM120.108 48.9H116.318V43.2H120.108V43.8H117.016V45.7H120.009V46.3H117.016V48.3H120.108V48.9ZM120.807 49V48.4C121.006 48.4 121.206 48.3 121.405 48.2C121.505 48.1 121.705 47.9 121.804 47.5C121.904 47.2 122.004 46.7 122.104 46.1L122.503 43.2H125.994V48.9H125.196V43.8H123.101L122.802 46.1C122.702 46.7 122.602 47.2 122.503 47.6C122.403 48 122.203 48.3 122.104 48.5C121.904 48.7 121.705 48.9 121.505 48.9C121.306 49 121.106 49 120.807 49ZM127.291 43.2H127.989V45.5H129.585C130.084 45.5 130.583 45.6 130.882 46C131.182 46.3 131.381 46.7 131.381 47.2C131.381 47.7 131.182 48.1 130.882 48.4C130.583 48.8 130.084 48.9 129.585 48.9H127.291V43.2ZM129.486 46.1H127.989V48.3H129.486C129.785 48.3 130.084 48.2 130.284 48C130.483 47.8 130.583 47.5 130.583 47.2C130.583 46.9 130.483 46.6 130.284 46.4C130.084 46.2 129.785 46.1 129.486 46.1ZM134.673 49C133.875 49 133.177 48.8 132.578 48.2C132.079 47.7 131.78 46.9 131.78 46.1C131.78 45.2 132.079 44.5 132.578 43.9C133.177 43.4 133.875 43.1 134.673 43.1C135.571 43.1 136.369 43.5 136.868 44.2L136.269 44.6C136.07 44.3 135.87 44.1 135.571 44C135.272 43.8 134.972 43.7 134.673 43.7C134.075 43.7 133.576 44 133.177 44.4C132.678 44.8 132.478 45.4 132.478 46.1C132.478 46.7 132.678 47.3 133.177 47.7C133.576 48.2 134.075 48.4 134.673 48.4C134.972 48.4 135.272 48.3 135.571 48.2C135.87 48 136.07 47.8 136.269 47.6L136.868 47.9C136.269 48.7 135.571 49 134.673 49ZM139.861 48.9H139.162V43.8H137.367V43.2H141.756V43.8H139.861V48.9ZM145.247 48.9H142.654V43.2H145.247C145.647 43.2 146.046 43.3 146.345 43.6C146.644 43.9 146.844 44.2 146.844 44.7C146.844 45 146.744 45.3 146.544 45.5C146.345 45.8 146.046 45.9 145.846 46C146.145 46 146.345 46.2 146.544 46.5C146.844 46.7 146.943 47 146.943 47.4C146.943 47.8 146.744 48.2 146.445 48.5C146.145 48.8 145.746 48.9 145.247 48.9ZM145.048 45.7C145.347 45.7 145.647 45.6 145.846 45.4C145.946 45.3 146.046 45 146.046 44.8C146.046 44.5 145.946 44.3 145.846 44.1C145.647 43.9 145.347 43.8 145.048 43.8H143.352V45.7H145.048ZM145.148 48.3C145.447 48.3 145.746 48.2 145.846 48C146.046 47.9 146.145 47.6 146.145 47.3C146.145 47 146.046 46.8 145.946 46.6C145.746 46.4 145.447 46.3 145.148 46.3H143.352V48.3H145.148ZM150.634 49C149.836 49 149.138 48.8 148.639 48.2C148.041 47.6 147.841 46.9 147.841 46.1C147.841 45.2 148.041 44.5 148.639 44C149.138 43.4 149.836 43.1 150.634 43.1C151.432 43.1 152.131 43.4 152.729 44C153.228 44.5 153.527 45.2 153.527 46.1C153.527 46.9 153.228 47.6 152.729 48.2C152.131 48.8 151.432 49 150.634 49ZM150.634 48.4C151.233 48.4 151.732 48.2 152.131 47.7C152.53 47.3 152.729 46.7 152.729 46.1C152.729 45.4 152.53 44.8 152.131 44.4C151.732 44 151.233 43.7 150.634 43.7C150.036 43.7 149.537 44 149.138 44.4C148.739 44.8 148.539 45.4 148.539 46.1C148.539 46.7 148.739 47.3 149.138 47.7C149.537 48.2 150.036 48.4 150.634 48.4ZM161.109 48.9H160.211L158.116 46.4L157.518 47V48.9H156.819V43.2H157.518V46.2L160.012 43.2H160.909L158.515 45.9L161.109 48.9ZM164.102 49C163.204 49 162.605 48.8 162.007 48.2C161.508 47.6 161.209 46.9 161.209 46.1C161.209 45.2 161.508 44.5 162.007 44C162.605 43.4 163.204 43.1 164.102 43.1C164.9 43.1 165.598 43.4 166.097 44C166.695 44.5 166.895 45.2 166.895 46.1C166.895 46.9 166.695 47.6 166.097 48.2C165.598 48.8 164.9 49 164.102 49ZM164.102 48.4C164.7 48.4 165.199 48.2 165.598 47.7C165.997 47.3 166.197 46.7 166.197 46.1C166.197 45.4 165.997 44.8 165.598 44.4C165.199 44 164.7 43.7 164.102 43.7C163.503 43.7 162.905 44 162.605 44.4C162.206 44.8 162.007 45.4 162.007 46.1C162.007 46.7 162.206 47.3 162.605 47.7C162.905 48.2 163.503 48.4 164.102 48.4ZM169.888 48.9H169.189V43.8H167.394V43.2H171.783V43.8H169.888V48.9ZM174.776 48.9H174.077V43.8H172.282V43.2H176.571V43.8H174.776V48.9ZM181.26 48.9H177.569V43.2H181.26V43.8H178.267V45.7H181.26V46.3H178.267V48.3H181.26V48.9ZM182.058 50V48.4C182.258 48.3 182.457 48.3 182.657 48.2C182.756 48.1 182.956 47.9 183.056 47.5C183.155 47.2 183.255 46.7 183.355 46.1L183.654 43.2H187.146V48.3H187.744V50H187.046V48.9H182.756V50H182.058ZM184.053 46.1C183.954 47.2 183.654 48 183.155 48.3H186.447V43.8H184.353L184.053 46.1ZM188.941 48.9H188.143L190.637 45.9L188.343 43.2H189.241L191.535 45.9V43.2H192.233V45.9L194.528 43.2H195.426L193.031 45.9L195.625 48.9H194.727L192.533 46.4L192.233 46.8V48.9H191.535V46.8L191.136 46.4L188.941 48.9ZM200.114 48.9H196.423V43.2H200.114V43.8H197.122V45.7H200.114V46.3H197.122V48.3H200.114V48.9ZM201.91 48.9H201.311V43.2H202.01V47.7L205.302 43.2H206V48.9H205.302V44.4L201.91 48.9ZM205.102 42.1C204.803 42.6 204.304 42.9 203.606 42.9C203.007 42.9 202.508 42.6 202.109 42.1L202.409 41.9C202.708 42.3 203.107 42.5 203.606 42.5C204.105 42.5 204.504 42.3 204.803 41.9L205.102 42.1Z" fill="#252362"/>
<path fill-rule="evenodd" clip-rule="evenodd" d="M0 24.6L24.6402 49.3L31.2242 42.7L37.8082 49.4L40.801 46.3L19.4528 24.6L31.2242 12.8L34.8155 16.4L26.6354 24.7L51.1758 49.3L75.6165 24.6L51.1758 0L44.492 6.6L37.8082 0L34.8155 3L56.1637 24.6L44.492 36.5L40.9007 32.9L49.0809 24.7L24.5404 0L0 24.6ZM47.5845 9.7L51.076 6.1L69.5312 24.6L51.1758 43.1L47.5845 39.5L62.3487 24.6L47.5845 9.7ZM28.1317 39.6L24.5404 43.2L6.08523 24.6L24.4407 6.1L28.2315 9.7L13.3676 24.7L28.1317 39.6ZM32.7206 24.6L37.8082 19.4L42.8959 24.6L37.8082 29.7L32.7206 24.6Z" fill="url(#paint0_linear_105_283)"/>
<path d="M40.3928 22.0144L37.8587 24.5546L40.3928 27.0949L42.9269 24.5546L40.3928 22.0144Z" fill="#F11419"/>
<path fill-rule="evenodd" clip-rule="evenodd" d="M103.848 22.9H106.94H109.933L112.128 25.1L114.223 27.2V30.2V33.3L112.128 35.4L109.933 37.6H106.94H103.848L101.753 35.4L99.5583 33.3V30.2V27.2L101.753 25.1L103.848 22.9ZM106.94 25.2C109.734 25.2 112.028 27.4 112.028 30.2C112.028 33.1 109.734 35.3 106.94 35.3C104.147 35.3 101.853 33.1 101.853 30.2C101.853 27.4 104.147 25.2 106.94 25.2Z" fill="#252362"/>
<defs>
<linearGradient id="paint0_linear_105_283" x1="0" y1="24.6812" x2="75.6327" y2="24.6812" gradientUnits="userSpaceOnUse">
<stop stop-color="#24235F"/>
<stop offset="1" stop-color="#01A59E"/>
</linearGradient>
</defs>
</svg>
