<svg width="20" height="20" viewBox="0 0 20 20" fill="none" xmlns="http://www.w3.org/2000/svg">
<circle cx="10" cy="10" r="10" fill="#15B91C"/>
<path d="M2 14L0 20L6 18L2 14Z" fill="#15B91C"/>
<path fill-rule="evenodd" clip-rule="evenodd" d="M7.00034 8.51593C7.12857 8.3969 7.86501 7.68434 8.15224 7.41905C8.51129 7.08745 8.51129 6.70483 8.38306 6.39873C8.25483 6.09263 7.39116 4.68974 7.16034 4.38364C6.92953 4.07755 6.75 4.02653 6.49354 4.00102C6.23708 3.97551 5.67286 4.43466 5.31381 4.79177C4.95477 5.14888 4.37898 6.00083 4.17382 6.35794C3.99429 6.63629 3.91735 7.02116 4.12252 7.70988C4.32769 8.39859 4.73803 9.62298 5.71259 10.9749C6.68714 12.3268 7.81558 13.4237 9.50823 14.5715C11.2009 15.7194 12.8422 16 13.1243 16C13.4065 16 13.8027 15.8113 14.2643 15.4541C14.726 15.097 15.3671 14.4848 15.7775 14.0512C16.1878 13.6176 15.957 13.1329 15.6749 12.8778C15.3928 12.6228 13.979 11.7402 13.5686 11.5872C13.1583 11.4341 12.7736 11.6382 12.5941 11.8422C12.4505 12.0055 11.6644 12.8116 11.4935 12.9901C11.1686 12.9391 9.78804 12.1177 8.82374 11.1994C7.85944 10.2811 7.04308 8.86454 7.00034 8.51593Z" fill="white"/>
</svg>
