<svg width="30" height="30" viewBox="0 0 30 30" fill="none" xmlns="http://www.w3.org/2000/svg">
<rect width="30" height="30" rx="15" fill="#FF363C"/>
<path d="M5.53653 10.4049C5.80851 8.28875 7.35098 7.81781 9.00422 7.68415C12.7439 7.3818 19.7473 7.50277 21.3792 7.68415C23.419 7.91087 24.0989 8.7422 24.3709 9.95141C24.6429 11.1606 24.7109 16.1486 24.5749 18.6426C24.4389 21.1366 23.215 22.0435 21.7191 22.2702C20.2233 22.4969 11.0441 22.5725 9.00422 22.4214C6.96438 22.2702 5.74051 21.4389 5.53653 19.7006C5.33255 17.9624 5.26456 12.521 5.53653 10.4049Z" fill="white"/>
<path d="M13.016 18.2647V11.8408L18.3732 15.015L13.016 18.2647Z" fill="#FF363C"/>
</svg>
